<svg width="1000" height="802" viewBox="0 0 1000 802" fill="none" xmlns="http://www.w3.org/2000/svg">
<path opacity="0.7" d="M287.652 76.6601C269.926 95.2808 255.261 116.639 239.744 137.13C181.189 213.971 109.034 279.97 57.8254 362.097C6.61668 444.223 -21.25 550.852 19.685 638.589C47.2855 697.839 102.327 739.824 161.387 765.979C211.918 788.67 266.576 800.26 321.8 799.996C437.206 798.613 544.202 741.233 657.159 716.541C707.223 705.699 758.565 701.064 808.07 687.783C843.15 678.405 877.484 664.446 906.549 642.519C987.168 581.968 1015.67 466.34 991.879 367.219C968.084 268.099 899.655 184.942 819.515 123.686C683.775 19.6053 426.32 -69.1888 287.652 76.6601Z" fill="#B9B9B9" fill-opacity="0.49"/>
<g clip-path="url(#clip0)">
<path d="M738.3 240.202C742.133 227.527 738.488 212.745 726.102 204.408C725.86 218.599 719.434 232.262 707.96 242.981C703.517 247.102 698.045 251.311 697.83 256.781C697.696 260.185 699.746 263.454 702.57 265.975C705.395 268.496 708.958 270.383 712.479 272.24L712.997 272.98C724.331 263.712 734.466 252.877 738.3 240.202Z" fill="#A8D299"/>
<path d="M725.853 204.594C730.604 214.686 731.31 225.735 727.872 236.171C727.181 238.428 726.056 240.583 724.537 242.556C722.981 244.44 720.831 245.951 718.311 246.933C715.984 247.887 713.467 248.645 711.466 250.041C710.456 250.768 709.646 251.659 709.09 252.658C708.534 253.656 708.245 254.739 708.241 255.834C708.144 258.563 709.263 261.158 710.466 263.665C711.802 266.448 713.244 269.321 712.935 272.368C712.898 272.737 713.606 272.763 713.644 272.394C714.181 267.093 709.739 262.615 709.035 257.473C708.706 255.074 709.267 252.58 711.456 250.83C713.37 249.301 715.964 248.518 718.331 247.568C720.807 246.639 722.964 245.233 724.615 243.473C726.253 241.568 727.479 239.452 728.241 237.215C730.055 232.199 730.885 226.984 730.701 221.759C730.531 215.796 729.104 209.9 726.482 204.326C726.319 203.981 725.692 204.251 725.853 204.594V204.594Z" fill="white"/>
<path d="M729.223 232.863C731.462 233.093 733.728 232.67 735.617 231.671C737.507 230.671 738.896 229.16 739.538 227.406C739.666 227.051 738.991 226.873 738.863 227.229C738.269 228.862 736.975 230.27 735.213 231.198C733.451 232.126 731.338 232.513 729.255 232.289C728.803 232.24 728.773 232.815 729.223 232.863V232.863Z" fill="white"/>
<path d="M719.57 246.575C716.712 243.641 715.323 239.941 715.68 236.214C715.716 235.845 715.007 235.819 714.971 236.188C714.608 240.067 716.063 243.915 719.046 246.963C719.33 247.254 719.853 246.864 719.57 246.575V246.575Z" fill="white"/>
<path d="M729.677 216.115C728.788 216.172 727.895 216.05 727.079 215.758C726.263 215.467 725.549 215.016 725.001 214.445C724.721 214.152 724.199 214.542 724.477 214.833C725.086 215.461 725.875 215.959 726.776 216.282C727.677 216.606 728.662 216.745 729.644 216.689C729.738 216.69 729.828 216.663 729.897 216.612C729.965 216.561 730.008 216.49 730.015 216.415C730.019 216.339 729.985 216.265 729.922 216.209C729.859 216.152 729.77 216.119 729.677 216.115V216.115Z" fill="white"/>
<path d="M672.541 212.614C672.71 212.801 672.878 212.988 673.044 213.18C675.291 215.704 677.281 218.373 678.995 221.159C679.132 221.372 679.266 221.591 679.395 221.807C683.436 228.555 685.896 235.852 686.65 243.327C686.947 246.302 686.964 249.291 686.701 252.268C686.338 256.379 685.541 260.814 686.837 264.669C686.966 265.072 687.127 265.469 687.317 265.856L711.843 273.434C711.91 273.429 711.974 273.428 712.041 273.422L713.003 273.761C713.03 273.608 713.054 273.45 713.08 273.297C713.096 273.208 713.107 273.118 713.123 273.029C713.132 272.97 713.141 272.91 713.153 272.857C713.156 272.837 713.159 272.817 713.16 272.802C713.172 272.748 713.176 272.698 713.186 272.649C713.322 271.761 713.45 270.871 713.571 269.978C713.573 269.973 713.573 269.973 713.57 269.967C714.569 263.173 714.571 256.306 713.575 249.511C713.542 249.309 713.512 249.102 713.467 248.896C712.952 245.865 712.132 242.873 711.015 239.951C710.397 238.352 709.68 236.78 708.866 235.24C706.753 231.264 703.882 227.583 700.358 224.33C693.331 217.848 683.825 213.259 673.343 212.654C673.075 212.638 672.812 212.624 672.541 212.614Z" fill="#A8D299"/>
<path d="M672.478 212.883C683.766 218.623 692.537 227.1 697.544 237.111C698.669 239.25 699.371 241.52 699.624 243.837C699.78 246.1 699.186 248.356 697.903 250.37C696.754 252.267 695.307 254.1 694.746 256.191C694.479 257.265 694.495 258.373 694.793 259.441C695.09 260.51 695.663 261.515 696.474 262.391C698.424 264.618 701.245 266.143 704.067 267.557C707.2 269.128 710.486 270.718 712.502 273.302C712.747 273.615 713.332 273.289 713.088 272.977C709.579 268.482 702.707 267.074 698.325 263.312C696.281 261.557 694.876 259.292 695.324 256.827C695.716 254.672 697.206 252.78 698.391 250.867C699.678 248.917 700.356 246.742 700.366 244.53C700.26 242.21 699.667 239.922 698.613 237.764C696.336 232.874 693.125 228.305 689.098 224.223C684.533 219.544 679.014 215.533 672.781 212.363C672.395 212.167 672.094 212.688 672.478 212.883V212.883Z" fill="white"/>
<path d="M696.166 233.81C698.123 232.901 699.619 231.458 700.385 229.738C701.151 228.017 701.138 226.132 700.348 224.419C700.187 224.073 699.516 224.26 699.677 224.607C700.417 226.201 700.429 227.957 699.711 229.557C698.994 231.158 697.594 232.498 695.764 233.336C695.367 233.518 695.771 233.992 696.166 233.81Z" fill="white"/>
<path d="M698.642 249.47C694.181 248.522 690.324 246.246 687.841 243.095C687.595 242.783 687.01 243.108 687.256 243.42C689.847 246.695 693.867 249.057 698.512 250.035C698.955 250.128 699.083 249.562 698.642 249.47V249.47Z" fill="white"/>
<path d="M684.088 222.216C683.421 222.696 682.617 223.034 681.749 223.199C680.881 223.365 679.976 223.353 679.115 223.165C678.673 223.068 678.546 223.634 678.984 223.731C679.937 223.935 680.937 223.947 681.896 223.765C682.856 223.584 683.746 223.215 684.489 222.691C684.564 222.646 684.615 222.58 684.632 222.506C684.65 222.431 684.631 222.355 684.581 222.291C684.527 222.228 684.446 222.185 684.353 222.171C684.261 222.157 684.165 222.174 684.088 222.216V222.216Z" fill="white"/>
<path d="M640.112 498.918C557.885 498.918 490.988 444.691 490.988 378.038C490.988 311.385 557.885 257.158 640.112 257.158C648.805 257.158 657.482 257.767 666.046 258.98C666.153 258.995 666.255 259.027 666.346 259.074C666.438 259.121 666.517 259.182 666.579 259.254C666.642 259.326 666.686 259.407 666.71 259.492C666.733 259.578 666.736 259.667 666.717 259.753C666.698 259.84 666.659 259.923 666.601 259.997C666.542 260.071 666.467 260.135 666.378 260.185C666.289 260.236 666.189 260.271 666.083 260.29C665.977 260.309 665.868 260.311 665.761 260.296C657.292 259.096 648.71 258.493 640.112 258.494C558.793 258.494 492.636 312.121 492.636 378.038C492.636 443.955 558.793 497.582 640.112 497.582C721.431 497.582 787.589 443.955 787.589 378.038C787.625 348.244 773.901 319.519 749.117 297.517C748.971 297.386 748.895 297.213 748.906 297.037C748.917 296.861 749.013 296.695 749.174 296.576C749.335 296.457 749.547 296.395 749.765 296.403C749.982 296.41 750.187 296.487 750.335 296.617C775.395 318.865 789.273 347.911 789.236 378.038C789.236 444.691 722.34 498.918 640.112 498.918Z" fill="#E4E4E4"/>
<path d="M705.865 298.616C722.16 298.616 735.369 287.908 735.369 274.7C735.369 261.491 722.16 250.784 705.865 250.784C689.57 250.784 676.36 261.491 676.36 274.7C676.36 287.908 689.57 298.616 705.865 298.616Z" fill="#00B0FF"/>
<path d="M636.276 359.279L590.777 256.678L591.931 256.342L583.564 237.47L582.41 237.807L568.44 206.305C567.918 205.129 567.116 204.047 566.078 203.122C565.041 202.197 563.789 201.446 562.393 200.913C560.998 200.38 559.487 200.075 557.946 200.016C556.406 199.956 554.866 200.143 553.414 200.566L471.163 224.532C469.712 224.955 468.377 225.605 467.236 226.446C466.094 227.287 465.169 228.302 464.511 229.433C463.854 230.564 463.477 231.789 463.404 233.038C463.33 234.287 463.561 235.535 464.083 236.712L473.823 258.677L472 259.246L478.218 272.333L479.677 271.878L480.968 274.789L479.415 275.274L485.633 288.362L486.822 287.99L531.919 389.686C532.438 390.864 533.239 391.947 534.276 392.873C535.313 393.8 536.565 394.551 537.961 395.084C539.357 395.618 540.87 395.922 542.411 395.981C543.953 396.039 545.493 395.85 546.945 395.425L629.195 371.459C632.125 370.603 634.515 368.839 635.842 366.556C637.17 364.272 637.325 361.656 636.276 359.279Z" fill="#3F3D56"/>
<path d="M542.619 392.043C541.461 392.041 540.331 391.75 539.384 391.209C538.437 390.669 537.719 389.905 537.326 389.022L468.774 234.433C468.27 233.295 468.344 232.04 468.98 230.946C469.616 229.851 470.762 229.006 472.167 228.597L489.667 223.498L489.641 223.994C489.596 224.856 489.813 225.713 490.274 226.491C490.734 227.268 491.423 227.942 492.28 228.453C493.137 228.964 494.136 229.296 495.188 229.42C496.241 229.544 497.315 229.456 498.317 229.165L537.155 217.848C538.093 217.5 538.916 216.978 539.558 216.324C540.201 215.67 540.644 214.903 540.853 214.084C541.059 213.279 541.028 212.446 540.762 211.653C540.495 210.86 540.001 210.129 539.32 209.52L538.91 209.15L556.987 203.883C558.391 203.475 559.938 203.536 561.288 204.051C562.638 204.567 563.68 205.495 564.187 206.633L629.591 354.123C630.926 357.145 630.728 360.472 629.04 363.375C627.352 366.278 624.313 368.52 620.589 369.609L544.526 391.772C543.914 391.951 543.269 392.043 542.619 392.043V392.043Z" fill="white"/>
<path d="M535.918 282.397C548.203 282.397 558.163 274.324 558.163 264.365C558.163 254.406 548.203 246.333 535.918 246.333C523.632 246.333 513.673 254.406 513.673 264.365C513.673 274.324 523.632 282.397 535.918 282.397Z" fill="#00B0FF"/>
<path d="M591.04 290.587L514.005 313.034C513.764 313.104 513.509 313.136 513.253 313.126C512.998 313.117 512.747 313.066 512.515 312.978C512.284 312.89 512.076 312.765 511.903 312.612C511.731 312.459 511.598 312.279 511.511 312.084C511.425 311.889 511.387 311.682 511.399 311.475C511.411 311.267 511.474 311.064 511.583 310.877C511.693 310.689 511.846 310.521 512.036 310.382C512.226 310.242 512.447 310.135 512.688 310.065L589.724 287.619C590.209 287.479 590.743 287.5 591.209 287.679C591.675 287.857 592.034 288.178 592.209 288.571C592.383 288.964 592.358 289.397 592.139 289.775C591.92 290.153 591.525 290.445 591.04 290.587V290.587Z" fill="#E6E6E6"/>
<path d="M568.164 304.819L542.824 312.202C542.584 312.273 542.328 312.304 542.073 312.295C541.817 312.285 541.566 312.235 541.335 312.147C541.103 312.058 540.895 311.934 540.723 311.781C540.551 311.627 540.418 311.448 540.331 311.253C540.245 311.057 540.207 310.85 540.219 310.643C540.231 310.436 540.294 310.233 540.403 310.045C540.512 309.858 540.666 309.69 540.856 309.55C541.045 309.411 541.267 309.303 541.508 309.234L566.847 301.85C567.333 301.709 567.868 301.73 568.335 301.908C568.802 302.086 569.162 302.408 569.336 302.801C569.511 303.195 569.486 303.629 569.266 304.007C569.046 304.386 568.649 304.678 568.164 304.819V304.819Z" fill="#E6E6E6"/>
<path d="M574.19 318.41L548.851 325.794C548.611 325.864 548.356 325.895 548.1 325.885C547.845 325.875 547.595 325.824 547.364 325.736C547.132 325.648 546.925 325.523 546.753 325.37C546.581 325.217 546.448 325.038 546.362 324.843C546.275 324.648 546.237 324.441 546.249 324.234C546.262 324.027 546.324 323.824 546.433 323.637C546.542 323.45 546.695 323.281 546.884 323.142C547.073 323.003 547.294 322.895 547.535 322.825L572.874 315.442C573.36 315.3 573.895 315.321 574.362 315.499C574.828 315.677 575.189 315.999 575.363 316.392C575.538 316.786 575.512 317.22 575.293 317.598C575.073 317.977 574.676 318.269 574.19 318.41V318.41Z" fill="#E6E6E6"/>
<path d="M577.277 325.372L551.938 332.755C551.698 332.825 551.442 332.857 551.186 332.848C550.931 332.838 550.68 332.788 550.448 332.7C550.216 332.611 550.009 332.487 549.836 332.334C549.664 332.18 549.531 332.001 549.444 331.805C549.358 331.61 549.319 331.403 549.332 331.196C549.344 330.989 549.407 330.785 549.516 330.598C549.626 330.41 549.779 330.242 549.969 330.103C550.159 329.963 550.381 329.856 550.622 329.786L575.961 322.403C576.202 322.332 576.457 322.301 576.713 322.311C576.968 322.32 577.219 322.37 577.451 322.459C577.682 322.547 577.89 322.671 578.062 322.825C578.235 322.978 578.368 323.157 578.454 323.353C578.541 323.548 578.579 323.755 578.567 323.962C578.555 324.169 578.492 324.373 578.383 324.56C578.273 324.748 578.119 324.916 577.93 325.055C577.74 325.194 577.518 325.302 577.277 325.372L577.277 325.372Z" fill="#E6E6E6"/>
<path d="M585.346 307.379L531.585 323.043C531.344 323.114 531.088 323.145 530.833 323.136C530.577 323.126 530.326 323.076 530.095 322.988C529.863 322.9 529.655 322.775 529.483 322.622C529.311 322.468 529.178 322.289 529.091 322.094C529.005 321.899 528.966 321.691 528.979 321.484C528.991 321.277 529.054 321.074 529.163 320.886C529.272 320.699 529.426 320.531 529.616 320.391C529.805 320.252 530.027 320.144 530.268 320.075L584.029 304.41C584.27 304.34 584.525 304.308 584.781 304.318C585.037 304.327 585.287 304.377 585.519 304.466C585.751 304.554 585.959 304.678 586.131 304.832C586.303 304.985 586.436 305.164 586.523 305.36C586.609 305.555 586.648 305.762 586.635 305.969C586.623 306.176 586.56 306.38 586.451 306.567C586.342 306.755 586.188 306.923 585.998 307.062C585.808 307.201 585.587 307.309 585.346 307.379V307.379Z" fill="#E6E6E6"/>
<path d="M574.517 342.27L565.316 344.951C564.491 345.191 563.581 345.156 562.788 344.852C561.995 344.549 561.382 344.003 561.086 343.334C560.789 342.665 560.832 341.927 561.206 341.284C561.579 340.641 562.253 340.144 563.078 339.903L572.278 337.222C573.104 336.982 574.014 337.018 574.807 337.321C575.6 337.624 576.213 338.171 576.509 338.84C576.806 339.509 576.763 340.246 576.389 340.889C576.016 341.533 575.342 342.029 574.517 342.27V342.27Z" fill="#00B0FF"/>
<path d="M502.014 223.998C502.72 223.998 503.293 223.533 503.293 222.961C503.293 222.388 502.72 221.924 502.014 221.924C501.307 221.924 500.734 222.388 500.734 222.961C500.734 223.533 501.307 223.998 502.014 223.998Z" fill="white"/>
<path d="M354.867 281.292C369.208 267.609 392.476 258.986 413.927 263.457C394.607 275.116 380.997 291.939 375.505 310.949C373.42 318.287 372.043 326.624 364.694 331.229C360.121 334.095 353.972 334.878 348.228 334.358C342.483 333.838 337.016 332.139 331.622 330.455L330.188 330.584C333.796 312.87 340.527 294.975 354.867 281.292Z" fill="#A8D299"/>
<path d="M413.873 263.831C396.164 267.675 380.399 275.945 368.818 287.465C366.27 289.909 364.214 292.664 362.725 295.627C361.389 298.551 361.044 301.713 361.725 304.782C362.289 307.654 363.277 310.539 362.97 313.472C362.785 314.972 362.211 316.423 361.286 317.73C360.361 319.038 359.106 320.172 357.602 321.058C353.927 323.346 349.456 324.426 345.039 325.36C340.135 326.397 335.021 327.411 331.079 330.146C330.602 330.478 329.995 329.858 330.472 329.527C337.33 324.767 347.069 325.171 354.709 321.662C358.273 320.025 361.251 317.507 361.892 314.119C362.453 311.156 361.438 308.18 360.836 305.276C360.117 302.29 360.312 299.206 361.402 296.295C362.7 293.28 364.622 290.466 367.085 287.973C372.52 282.29 379.024 277.336 386.357 273.29C394.696 268.635 403.955 265.171 413.734 263.048C414.34 262.916 414.474 263.701 413.873 263.831H413.873Z" fill="white"/>
<path d="M372.277 283.578C370.157 281.74 368.911 279.352 368.762 276.838C368.614 274.325 369.572 271.851 371.466 269.857C371.851 269.455 372.64 269.921 372.255 270.324C370.487 272.177 369.594 274.482 369.739 276.822C369.883 279.163 371.054 281.384 373.042 283.085C373.473 283.456 372.706 283.946 372.277 283.578H372.277Z" fill="white"/>
<path d="M361.202 303.356C367.542 303.573 373.75 301.845 378.588 298.517C379.067 298.187 379.674 298.807 379.195 299.137C374.153 302.593 367.688 304.38 361.091 304.142C360.462 304.119 360.577 303.333 361.202 303.356V303.356Z" fill="white"/>
<path d="M394.946 269.665C395.584 270.514 396.472 271.222 397.53 271.725C398.589 272.227 399.785 272.509 401.011 272.544C401.64 272.561 401.525 273.347 400.9 273.33C399.546 273.286 398.225 272.974 397.054 272.421C395.883 271.868 394.897 271.091 394.181 270.157C394.105 270.074 394.071 269.97 394.085 269.867C394.1 269.763 394.162 269.669 394.26 269.601C394.362 269.537 394.491 269.507 394.619 269.519C394.747 269.531 394.865 269.583 394.946 269.665V269.665Z" fill="white"/>
<path d="M445.824 318.473C445.432 318.471 445.038 318.47 444.641 318.474C439.357 318.479 434.083 318.832 428.87 319.53C428.466 319.579 428.057 319.633 427.655 319.691C415.118 321.48 403.099 325.14 392.21 330.485C387.88 332.615 383.755 335.01 379.873 337.647C374.511 341.29 369.055 345.585 362.709 347.522C362.05 347.731 361.375 347.905 360.689 348.046L330.494 331.992C330.447 331.928 330.397 331.869 330.35 331.804L329.108 331.208C329.297 331.061 329.496 330.911 329.685 330.764C329.794 330.678 329.909 330.595 330.018 330.51C330.093 330.453 330.168 330.398 330.232 330.343C330.257 330.325 330.282 330.306 330.302 330.293C330.365 330.239 330.431 330.194 330.49 330.146C331.602 329.307 332.723 328.474 333.854 327.645C333.858 327.639 333.858 327.639 333.87 327.637C342.502 321.341 351.858 315.573 361.998 311.14C362.303 311.007 362.612 310.867 362.931 310.741C367.515 308.764 372.29 307.093 377.21 305.746C379.907 305.015 382.648 304.396 385.422 303.89C392.593 302.594 399.97 302.22 407.285 302.783C421.865 303.906 435.84 308.796 445.124 317.781C445.361 318.011 445.592 318.237 445.824 318.473Z" fill="#A8D299"/>
<path d="M445.505 318.747C428.51 313.174 409.781 312.083 391.977 315.629C388.128 316.338 384.44 317.533 381.05 319.172C377.811 320.856 375.188 323.211 373.452 325.994C371.769 328.563 370.415 331.348 367.991 333.54C366.73 334.648 365.194 335.526 363.485 336.119C361.775 336.711 359.93 337.004 358.071 336.978C353.437 337.011 349.065 335.692 344.845 334.282C340.159 332.716 335.323 331.029 330.144 331.29C329.516 331.322 329.493 330.531 330.119 330.499C339.13 330.046 346.606 335.121 355.312 336.048C359.374 336.48 363.622 335.923 366.651 333.531C369.299 331.439 370.699 328.568 372.375 325.955C374.019 323.22 376.465 320.853 379.498 319.06C382.774 317.287 386.398 315.978 390.216 315.19C398.777 313.305 407.65 312.522 416.51 312.871C426.625 313.224 436.591 314.977 445.976 318.054C446.557 318.245 446.082 318.937 445.505 318.747L445.505 318.747Z" fill="white"/>
<path d="M397.627 314.214C397.298 311.712 398.078 309.196 399.826 307.117C401.574 305.038 404.177 303.53 407.17 302.863C407.776 302.73 408.06 303.487 407.453 303.62C404.665 304.237 402.24 305.642 400.617 307.581C398.994 309.52 398.28 311.865 398.603 314.194C398.672 314.7 397.696 314.717 397.627 314.214V314.214Z" fill="white"/>
<path d="M374.094 324.601C378.994 327.868 385.234 329.518 391.569 329.222C392.197 329.192 392.221 329.983 391.594 330.013C385.001 330.311 378.512 328.583 373.421 325.174C372.936 324.849 373.611 324.277 374.094 324.601H374.094Z" fill="white"/>
<path d="M426.06 314.168C425.938 315.158 426.122 316.156 426.594 317.074C427.066 317.992 427.812 318.801 428.764 319.427C429.254 319.747 428.578 320.319 428.092 320.001C427.043 319.305 426.221 318.411 425.696 317.398C425.172 316.384 424.962 315.282 425.084 314.188C425.085 314.084 425.135 313.985 425.223 313.909C425.311 313.834 425.432 313.789 425.56 313.783C425.689 313.781 425.814 313.82 425.908 313.892C426.001 313.964 426.056 314.063 426.06 314.168V314.168Z" fill="white"/>
<path d="M785.24 544.283C800.876 547.39 819.112 544.435 829.397 534.396C811.891 534.199 795.035 528.99 781.811 519.69C776.727 516.088 771.536 511.653 764.787 511.478C760.588 511.369 756.555 513.031 753.445 515.321C750.335 517.61 748.007 520.499 745.716 523.353L744.803 523.772C756.236 532.96 769.604 541.175 785.24 544.283Z" fill="#A8D299"/>
<path d="M829.169 534.194C816.718 538.044 803.088 538.617 790.213 535.83C787.428 535.27 784.77 534.358 782.336 533.127C780.012 531.866 778.148 530.123 776.936 528.08C775.759 526.194 774.825 524.154 773.102 522.532C772.206 521.712 771.105 521.056 769.874 520.605C768.642 520.155 767.307 519.92 765.955 519.917C762.588 519.839 759.387 520.746 756.295 521.721C752.862 522.804 749.317 523.972 745.558 523.722C745.103 523.692 745.071 524.267 745.526 524.297C752.066 524.732 757.59 521.132 763.933 520.561C766.893 520.294 769.97 520.749 772.128 522.523C774.015 524.075 774.981 526.178 776.153 528.096C777.298 530.103 779.033 531.852 781.205 533.19C783.554 534.518 786.165 535.512 788.926 536.129C795.113 537.6 801.547 538.273 807.992 538.123C815.349 537.986 822.623 536.829 829.499 534.703C829.924 534.572 829.591 534.063 829.169 534.194H829.169Z" fill="white"/>
<path d="M794.293 536.925C794.01 538.74 794.531 540.577 795.764 542.108C796.998 543.64 798.862 544.766 801.025 545.287C801.464 545.391 801.684 544.844 801.245 544.739C799.229 544.258 797.493 543.209 796.348 541.781C795.203 540.353 794.726 538.64 795.002 536.951C795.062 536.585 794.353 536.561 794.293 536.925V536.925Z" fill="white"/>
<path d="M777.377 529.1C780.997 526.783 785.561 525.658 790.16 525.948C790.615 525.977 790.647 525.402 790.192 525.373C785.406 525.079 780.659 526.258 776.899 528.676C776.541 528.906 777.021 529.33 777.377 529.1H777.377Z" fill="white"/>
<path d="M814.955 537.293C814.885 536.572 815.036 535.849 815.395 535.187C815.755 534.526 816.311 533.947 817.015 533.503C817.377 533.276 816.896 532.853 816.536 533.078C815.762 533.572 815.148 534.212 814.749 534.942C814.35 535.672 814.177 536.47 814.247 537.267C814.245 537.342 814.28 537.415 814.343 537.471C814.405 537.527 814.492 537.561 814.585 537.567C814.679 537.57 814.77 537.543 814.84 537.492C814.909 537.44 814.951 537.369 814.955 537.293V537.293Z" fill="white"/>
<path d="M819.274 490.979C819.044 491.116 818.813 491.252 818.576 491.387C815.462 493.208 812.17 494.822 808.733 496.211C808.469 496.322 808.2 496.431 807.933 496.535C799.609 499.81 790.607 501.804 781.385 502.416C777.715 502.656 774.027 502.67 770.355 502.457C765.283 502.163 759.812 501.517 755.057 502.567C754.559 502.672 754.07 502.802 753.592 502.956L744.243 522.837C744.25 522.891 744.251 522.943 744.257 522.997L743.839 523.777C744.028 523.799 744.224 523.818 744.412 523.84C744.522 523.853 744.633 523.862 744.742 523.875C744.816 523.882 744.889 523.889 744.955 523.899C744.98 523.901 745.004 523.903 745.023 523.904C745.089 523.914 745.151 523.918 745.212 523.926C746.307 524.036 747.405 524.14 748.507 524.238C748.512 524.239 748.512 524.239 748.52 524.237C756.902 525.047 765.373 525.049 773.756 524.241C774.005 524.215 774.261 524.19 774.515 524.154C778.254 523.736 781.944 523.071 785.55 522.166C787.522 521.665 789.462 521.083 791.361 520.423C796.266 518.711 800.808 516.384 804.82 513.527C812.818 507.831 818.479 500.126 819.225 491.629C819.244 491.411 819.261 491.198 819.274 490.979Z" fill="#A8D299"/>
<path d="M818.942 490.928C811.861 500.078 801.403 507.188 789.054 511.246C786.414 512.158 783.614 512.727 780.756 512.932C777.964 513.059 775.181 512.577 772.696 511.538C770.356 510.606 768.094 509.433 765.515 508.979C764.19 508.762 762.824 508.775 761.506 509.016C760.187 509.257 758.947 509.722 757.866 510.379C755.119 511.96 753.237 514.246 751.493 516.534C749.556 519.074 747.593 521.737 744.406 523.372C744.02 523.57 744.422 524.044 744.807 523.846C750.352 521.002 752.089 515.431 756.73 511.88C758.895 510.222 761.69 509.084 764.73 509.447C767.389 509.765 769.723 510.973 772.083 511.933C774.488 512.976 777.172 513.526 779.901 513.534C782.762 513.448 785.585 512.967 788.248 512.113C794.28 510.268 799.917 507.665 804.952 504.4C810.724 500.7 815.673 496.226 819.584 491.173C819.826 490.86 819.183 490.617 818.942 490.928H818.942Z" fill="white"/>
<path d="M793.125 510.129C794.246 511.716 796.027 512.928 798.149 513.549C800.272 514.17 802.597 514.16 804.71 513.519C805.137 513.389 804.907 512.845 804.479 512.975C802.513 513.575 800.346 513.585 798.372 513.003C796.397 512.421 794.744 511.287 793.71 509.804C793.485 509.482 792.901 509.809 793.125 510.129Z" fill="white"/>
<path d="M773.807 512.137C774.976 508.52 777.784 505.394 781.671 503.381C782.056 503.182 781.655 502.708 781.27 502.907C777.23 505.007 774.316 508.266 773.109 512.031C772.994 512.39 773.692 512.494 773.807 512.137Z" fill="white"/>
<path d="M809.896 500.339C809.304 499.798 808.887 499.146 808.683 498.443C808.478 497.739 808.493 497.005 808.725 496.307C808.845 495.95 808.147 495.847 808.027 496.202C807.776 496.974 807.761 497.784 807.984 498.562C808.208 499.34 808.663 500.062 809.31 500.664C809.365 500.725 809.447 500.766 809.539 500.78C809.63 500.794 809.725 500.779 809.803 500.738C809.881 500.695 809.934 500.629 809.951 500.554C809.968 500.479 809.948 500.402 809.896 500.339V500.339Z" fill="white"/>
<path d="M847.895 422.46L824.051 454.984L824.957 455.371L816.883 467.779L815.203 467.058L809.897 474.291L811.215 474.905L802.564 487.047L801.065 486.345L723.265 592.479C721.224 595.257 717.908 597.265 714.043 598.062C710.178 598.86 706.081 598.382 702.651 596.733L558.017 527.071C554.59 525.417 552.113 522.729 551.129 519.596C550.145 516.463 550.735 513.142 552.769 510.361L677.399 340.342C679.439 337.564 682.755 335.556 686.62 334.759C690.485 333.961 694.582 334.439 698.012 336.087L842.646 405.75C846.072 407.405 848.548 410.093 849.532 413.225C850.515 416.358 849.927 419.679 847.895 422.46V422.46Z" fill="#3F3D56"/>
<path d="M707.806 590.17L562.662 520.263C561.606 519.753 560.843 518.924 560.539 517.959C560.236 516.993 560.418 515.969 561.045 515.112L686.502 343.961C687.131 343.105 688.153 342.487 689.344 342.241C690.535 341.995 691.798 342.142 692.856 342.65L837.999 412.558C839.055 413.068 839.819 413.897 840.122 414.862C840.425 415.828 840.243 416.851 839.617 417.709L714.16 588.859C713.531 589.715 712.508 590.334 711.317 590.58C710.126 590.826 708.863 590.678 707.806 590.17Z" fill="white"/>
<path d="M767.426 374.899C768.133 374.899 768.706 374.435 768.706 373.862C768.706 373.289 768.133 372.825 767.426 372.825C766.72 372.825 766.147 373.289 766.147 373.862C766.147 374.435 766.72 374.899 767.426 374.899Z" fill="white"/>
<path d="M759.508 497.501L638.349 439.145C637.969 438.964 637.637 438.724 637.372 438.438C637.107 438.152 636.914 437.827 636.805 437.481C636.695 437.134 636.671 436.774 636.733 436.42C636.796 436.066 636.944 435.726 637.17 435.419C637.395 435.111 637.693 434.843 638.046 434.629C638.4 434.415 638.802 434.26 639.229 434.173C639.657 434.085 640.102 434.067 640.538 434.119C640.974 434.171 641.393 434.293 641.772 434.477L762.93 492.832C763.31 493.013 763.642 493.254 763.908 493.54C764.173 493.825 764.365 494.151 764.475 494.497C764.585 494.843 764.609 495.203 764.546 495.557C764.484 495.911 764.335 496.252 764.11 496.559C763.885 496.866 763.587 497.134 763.234 497.348C762.88 497.562 762.478 497.717 762.05 497.805C761.623 497.892 761.178 497.91 760.742 497.858C760.306 497.806 759.886 497.685 759.508 497.501H759.508Z" fill="#E6E6E6"/>
<path d="M711.13 488.459L671.278 469.264C670.899 469.082 670.569 468.841 670.306 468.555C670.042 468.27 669.851 467.945 669.742 467.599C669.633 467.254 669.61 466.894 669.673 466.541C669.736 466.188 669.884 465.849 670.108 465.542C670.333 465.235 670.63 464.968 670.983 464.754C671.335 464.54 671.736 464.385 672.162 464.297C672.589 464.209 673.032 464.19 673.468 464.241C673.903 464.292 674.322 464.413 674.7 464.595L714.553 483.789C714.931 483.972 715.261 484.212 715.525 484.498C715.788 484.784 715.979 485.108 716.088 485.454C716.196 485.8 716.22 486.159 716.157 486.512C716.094 486.865 715.946 487.205 715.721 487.511C715.497 487.818 715.2 488.085 714.847 488.299C714.495 488.512 714.094 488.668 713.668 488.756C713.241 488.844 712.798 488.863 712.363 488.812C711.927 488.761 711.508 488.641 711.13 488.459V488.459Z" fill="#E6E6E6"/>
<path d="M695.461 509.834L655.609 490.639C654.845 490.272 654.293 489.673 654.074 488.975C653.855 488.277 653.987 487.537 654.441 486.918C654.895 486.299 655.633 485.851 656.494 485.674C657.355 485.496 658.268 485.603 659.032 485.97L698.884 505.165C699.262 505.347 699.592 505.588 699.856 505.874C700.119 506.159 700.311 506.484 700.419 506.83C700.528 507.175 700.551 507.535 700.488 507.888C700.425 508.241 700.277 508.58 700.053 508.887C699.828 509.193 699.531 509.461 699.179 509.675C698.826 509.888 698.425 510.043 697.999 510.131C697.573 510.219 697.129 510.238 696.694 510.187C696.258 510.136 695.84 510.016 695.461 509.834V509.834Z" fill="#E6E6E6"/>
<path d="M687.436 520.783L647.584 501.588C647.204 501.406 646.873 501.166 646.608 500.88C646.344 500.594 646.152 500.269 646.043 499.923C645.933 499.577 645.909 499.217 645.972 498.864C646.035 498.51 646.183 498.17 646.408 497.863C646.633 497.556 646.931 497.288 647.284 497.074C647.637 496.861 648.038 496.705 648.465 496.618C648.892 496.53 649.337 496.512 649.773 496.563C650.209 496.615 650.628 496.736 651.006 496.919L690.858 516.114C691.239 516.295 691.571 516.535 691.836 516.821C692.101 517.107 692.294 517.432 692.404 517.779C692.513 518.125 692.537 518.485 692.475 518.839C692.412 519.193 692.264 519.533 692.039 519.841C691.814 520.148 691.516 520.416 691.162 520.63C690.808 520.844 690.406 520.999 689.979 521.087C689.551 521.174 689.106 521.192 688.67 521.14C688.234 521.088 687.814 520.966 687.436 520.782V520.783Z" fill="#E6E6E6"/>
<path d="M725.756 509.761L641.203 469.037C640.443 468.667 639.894 468.069 639.678 467.372C639.461 466.676 639.593 465.938 640.046 465.321C640.498 464.703 641.234 464.256 642.093 464.078C642.951 463.899 643.862 464.003 644.625 464.368L729.179 505.093C729.559 505.274 729.891 505.514 730.156 505.8C730.421 506.086 730.614 506.411 730.724 506.757C730.834 507.104 730.858 507.464 730.795 507.818C730.733 508.172 730.584 508.512 730.359 508.82C730.134 509.127 729.836 509.395 729.482 509.609C729.129 509.823 728.727 509.978 728.299 510.065C727.871 510.153 727.427 510.171 726.99 510.119C726.554 510.067 726.135 509.945 725.756 509.761V509.761Z" fill="#E6E6E6"/>
<path d="M709.64 561.808L695.17 554.838C693.873 554.212 692.936 553.194 692.564 552.008C692.193 550.822 692.417 549.564 693.188 548.512C693.959 547.46 695.214 546.699 696.677 546.397C698.14 546.094 699.691 546.275 700.99 546.899L715.46 553.868C716.759 554.494 717.698 555.512 718.071 556.699C718.443 557.886 718.219 559.144 717.447 560.197C716.676 561.249 715.42 562.011 713.955 562.313C712.491 562.615 710.939 562.433 709.64 561.808Z" fill="#00B0FF"/>
<path d="M736.638 448.648C753.019 448.648 766.298 437.884 766.298 424.605C766.298 411.327 753.019 400.563 736.638 400.563C720.257 400.563 706.978 411.327 706.978 424.605C706.978 437.884 720.257 448.648 736.638 448.648Z" fill="#00B0FF"/>
<path d="M250.349 522.305H651.733V333.941C651.731 332.53 651.039 331.177 649.807 330.179C648.576 329.181 646.907 328.619 645.166 328.618H256.917C255.175 328.619 253.506 329.181 252.275 330.179C251.044 331.177 250.351 332.53 250.349 333.941V522.305Z" fill="#3F3D56"/>
<path d="M639.332 335.98H262.751V509.279H639.332V335.98Z" fill="white"/>
<path d="M250 517.208V540.452C250 541.416 250.234 542.37 250.689 543.26C251.144 544.151 251.811 544.96 252.651 545.641C253.492 546.322 254.49 546.863 255.588 547.232C256.686 547.6 257.864 547.79 259.052 547.79H407.2V593.663H405.232C405.077 593.663 404.924 593.688 404.782 593.736C404.639 593.784 404.51 593.854 404.4 593.943C404.291 594.031 404.204 594.136 404.145 594.252C404.086 594.367 404.056 594.491 404.056 594.617V597.807C404.056 597.932 404.086 598.056 404.145 598.172C404.204 598.288 404.291 598.393 404.4 598.481C404.509 598.57 404.639 598.64 404.782 598.688C404.924 598.736 405.077 598.76 405.232 598.76H497.2C497.354 598.76 497.507 598.736 497.65 598.688C497.793 598.64 497.922 598.57 498.031 598.481C498.141 598.393 498.227 598.288 498.286 598.172C498.345 598.056 498.376 597.932 498.376 597.807V594.617C498.376 594.491 498.345 594.367 498.286 594.252C498.227 594.136 498.141 594.031 498.031 593.943C497.922 593.854 497.793 593.784 497.65 593.736C497.507 593.688 497.354 593.663 497.2 593.663H495.232V547.79H643.379C644.568 547.79 645.745 547.6 646.844 547.232C647.942 546.863 648.94 546.322 649.78 545.641C650.621 544.96 651.288 544.151 651.743 543.26C652.198 542.37 652.432 541.416 652.432 540.452V517.208L250 517.208Z" fill="#3F3D56"/>
<path d="M584.84 393.938H406.506C405.382 393.938 404.303 393.576 403.508 392.932C402.713 392.287 402.267 391.413 402.267 390.502C402.267 389.591 402.713 388.717 403.508 388.072C404.303 387.428 405.382 387.066 406.506 387.066H584.84C585.964 387.066 587.043 387.428 587.837 388.072C588.632 388.717 589.079 389.591 589.079 390.502C589.079 391.413 588.632 392.287 587.837 392.932C587.043 393.576 585.964 393.938 584.84 393.938V393.938Z" fill="#E6E6E6"/>
<path d="M525.002 409.449H466.343C465.219 409.449 464.141 409.087 463.346 408.443C462.551 407.798 462.104 406.924 462.104 406.013C462.104 405.101 462.551 404.227 463.346 403.583C464.141 402.939 465.219 402.577 466.343 402.577H525.002C526.127 402.577 527.205 402.939 528 403.583C528.795 404.227 529.242 405.101 529.242 406.013C529.242 406.924 528.795 407.798 528 408.443C527.205 409.087 526.127 409.449 525.002 409.449V409.449Z" fill="#E6E6E6"/>
<path d="M525.002 440.912H466.343C465.219 440.912 464.141 440.55 463.346 439.906C462.551 439.261 462.104 438.387 462.104 437.476C462.104 436.564 462.551 435.69 463.346 435.046C464.141 434.402 465.219 434.04 466.343 434.04H525.002C526.127 434.04 527.205 434.402 528 435.046C528.795 435.69 529.242 436.564 529.242 437.476C529.242 438.387 528.795 439.261 528 439.906C527.205 440.55 526.127 440.912 525.002 440.912Z" fill="#E6E6E6"/>
<path d="M525.002 457.027H466.343C465.787 457.027 465.235 456.938 464.721 456.765C464.207 456.593 463.74 456.34 463.346 456.021C462.952 455.702 462.64 455.323 462.427 454.906C462.214 454.489 462.104 454.042 462.104 453.591C462.104 453.14 462.214 452.693 462.427 452.276C462.64 451.859 462.952 451.48 463.346 451.161C463.74 450.842 464.207 450.589 464.721 450.416C465.235 450.244 465.787 450.155 466.343 450.155H525.002C525.559 450.155 526.11 450.244 526.625 450.416C527.139 450.589 527.606 450.842 528 451.161C528.393 451.48 528.706 451.859 528.919 452.276C529.132 452.693 529.241 453.14 529.241 453.591C529.241 454.042 529.132 454.489 528.919 454.906C528.706 455.323 528.393 455.702 528 456.021C527.606 456.34 527.139 456.593 526.625 456.765C526.11 456.938 525.559 457.027 525.002 457.027V457.027Z" fill="#E6E6E6"/>
<path d="M557.9 424.96H433.445C432.321 424.96 431.243 424.598 430.448 423.953C429.653 423.309 429.206 422.435 429.206 421.524C429.206 420.612 429.653 419.738 430.448 419.094C431.243 418.45 432.321 418.088 433.445 418.088H557.9C559.025 418.088 560.103 418.45 560.898 419.094C561.693 419.738 562.139 420.612 562.139 421.524C562.139 422.435 561.693 423.309 560.898 423.953C560.103 424.598 559.025 424.96 557.9 424.96V424.96Z" fill="#E6E6E6"/>
<path d="M581.871 490.022H560.572C558.66 490.022 556.827 489.406 555.475 488.31C554.123 487.215 553.364 485.728 553.364 484.179C553.364 482.629 554.123 481.143 555.475 480.047C556.827 478.951 558.66 478.336 560.572 478.336H581.871C583.783 478.336 585.616 478.951 586.968 480.047C588.32 481.143 589.079 482.629 589.079 484.179C589.079 485.728 588.32 487.215 586.968 488.31C585.616 489.406 583.783 490.022 581.871 490.022V490.022Z" fill="#00B0FF"/>
<path d="M350.428 447.614C370.904 447.614 387.503 434.158 387.503 417.561C387.503 400.963 370.904 387.508 350.428 387.508C329.952 387.508 313.353 400.963 313.353 417.561C313.353 434.158 329.952 447.614 350.428 447.614Z" fill="#00B0FF"/>
<path d="M784.281 600H250.982C250.722 599.999 250.473 599.915 250.29 599.766C250.106 599.617 250.003 599.415 250.003 599.205C250.003 598.994 250.106 598.792 250.29 598.643C250.473 598.494 250.722 598.41 250.982 598.41H784.281C784.541 598.41 784.79 598.494 784.973 598.643C785.156 598.792 785.259 598.994 785.259 599.205C785.259 599.415 785.156 599.617 784.973 599.766C784.79 599.915 784.541 599.999 784.281 600V600Z" fill="#CACACA"/>
<path d="M450.867 332.299C451.638 332.299 452.264 331.792 452.264 331.166C452.264 330.541 451.638 330.034 450.867 330.034C450.095 330.034 449.469 330.541 449.469 331.166C449.469 331.792 450.095 332.299 450.867 332.299Z" fill="white"/>
</g>
<defs>
<clipPath id="clip0">
<rect width="600" height="400" fill="white" transform="translate(250 200)"/>
</clipPath>
</defs>
</svg>
